<mxfile host="www.draw.io" modified="2019-12-11T10:11:48.498Z" agent="Mozilla/5.0 (Windows NT 6.3; Win64; x64) AppleWebKit/537.36 (KHTML, like Gecko) Chrome/78.0.3904.108 Safari/537.36" etag="i9rwyaMHjA6e-DufObR7" version="12.3.9" type="github" pages="1">
  <diagram id="9pqVZNMnvHMWW9GRLAtv" name="Page-1">
    <mxGraphModel dx="868" dy="520" grid="1" gridSize="10" guides="1" tooltips="1" connect="1" arrows="1" fold="1" page="1" pageScale="1" pageWidth="850" pageHeight="1100" math="0" shadow="0">
      <root>
        <mxCell id="0"/>
        <mxCell id="1" parent="0"/>
        <mxCell id="BCeBebv8FfAkpqQv-19W-3" value="" style="edgeStyle=orthogonalEdgeStyle;rounded=0;orthogonalLoop=1;jettySize=auto;html=1;" edge="1" parent="1" source="BCeBebv8FfAkpqQv-19W-1">
          <mxGeometry relative="1" as="geometry">
            <mxPoint x="400" y="200" as="targetPoint"/>
          </mxGeometry>
        </mxCell>
        <mxCell id="BCeBebv8FfAkpqQv-19W-1" value="Login" style="strokeWidth=2;html=1;shape=mxgraph.flowchart.start_1;whiteSpace=wrap;" vertex="1" parent="1">
          <mxGeometry x="350" y="60" width="100" height="60" as="geometry"/>
        </mxCell>
        <mxCell id="BCeBebv8FfAkpqQv-19W-6" value="" style="edgeStyle=orthogonalEdgeStyle;rounded=0;orthogonalLoop=1;jettySize=auto;html=1;" edge="1" parent="1" source="BCeBebv8FfAkpqQv-19W-4">
          <mxGeometry relative="1" as="geometry">
            <mxPoint x="400" y="340" as="targetPoint"/>
          </mxGeometry>
        </mxCell>
        <mxCell id="BCeBebv8FfAkpqQv-19W-4" value="Get Email Id and Password from user" style="shape=parallelogram;html=1;strokeWidth=2;perimeter=parallelogramPerimeter;whiteSpace=wrap;rounded=1;arcSize=12;size=0.23;" vertex="1" parent="1">
          <mxGeometry x="255" y="200" width="290" height="60" as="geometry"/>
        </mxCell>
        <mxCell id="BCeBebv8FfAkpqQv-19W-9" value="" style="edgeStyle=orthogonalEdgeStyle;rounded=0;orthogonalLoop=1;jettySize=auto;html=1;entryX=0.5;entryY=0;entryDx=0;entryDy=0;" edge="1" parent="1" source="BCeBebv8FfAkpqQv-19W-7" target="BCeBebv8FfAkpqQv-19W-13">
          <mxGeometry relative="1" as="geometry">
            <mxPoint x="530" y="440" as="targetPoint"/>
          </mxGeometry>
        </mxCell>
        <mxCell id="BCeBebv8FfAkpqQv-19W-11" value="" style="edgeStyle=orthogonalEdgeStyle;rounded=0;orthogonalLoop=1;jettySize=auto;html=1;" edge="1" parent="1" source="BCeBebv8FfAkpqQv-19W-7">
          <mxGeometry relative="1" as="geometry">
            <mxPoint x="400" y="520" as="targetPoint"/>
          </mxGeometry>
        </mxCell>
        <mxCell id="BCeBebv8FfAkpqQv-19W-7" value="Checking&lt;br&gt;&amp;nbsp;user == true" style="strokeWidth=2;html=1;shape=mxgraph.flowchart.decision;whiteSpace=wrap;" vertex="1" parent="1">
          <mxGeometry x="350" y="340" width="100" height="100" as="geometry"/>
        </mxCell>
        <mxCell id="BCeBebv8FfAkpqQv-19W-13" value="&lt;font color=&quot;#990000&quot;&gt;Show message(Email id or Password Does not Match)&lt;/font&gt;" style="rounded=1;whiteSpace=wrap;html=1;absoluteArcSize=1;arcSize=14;strokeWidth=2;fontStyle=1" vertex="1" parent="1">
          <mxGeometry x="460" y="440" width="190" height="50" as="geometry"/>
        </mxCell>
        <mxCell id="BCeBebv8FfAkpqQv-19W-16" value="NO" style="text;html=1;align=center;verticalAlign=middle;resizable=0;points=[];;autosize=1;fontStyle=1" vertex="1" parent="1">
          <mxGeometry x="485" y="370" width="30" height="20" as="geometry"/>
        </mxCell>
      </root>
    </mxGraphModel>
  </diagram>
</mxfile>
